# xmcd
#
# Track frame offsets:
#	151
#	17874
#	37419
#	54653
#	70371
#	98686
#	112419
#	137201
#	156600
#	180208
#
# Disc length: 2657 seconds
#
# Revision: 0
# Processed by: cddbd v1.5.1PL2 Copyright (c) Steve Scherf et al.
# Submitted via: dBpowerAMP V4.0
#
DISCID=970a5f0a
DTITLE=Tommy Hill - Rolling With Tommy In 2000
DYEAR=2000
DGENRE=blues
TTITLE0=Moe's Union Hall
TTITLE1=Wig Blues
TTITLE2=Midnight Fire
TTITLE3=Tee's Blues
TTITLE4=You Got The Blues
TTITLE5=Mag Town USA
TTITLE6=Monday Morning Black Coffee Johnnie Walker Red
TTITLE7=Somebody Else's Girl
TTITLE8=What You Gone Do
TTITLE9=Linda Lou
EXTD=
EXTT0=
EXTT1=
EXTT2=
EXTT3=
EXTT4=
EXTT5=
EXTT6=
EXTT7=
EXTT8=
EXTT9=
PLAYORDER=
